<?xml version="1.0" encoding="utf-8"?>
<!-- Generator: Adobe Illustrator 26.0.3, SVG Export Plug-In . SVG Version: 6.00 Build 0)  -->
<svg version="1.1" id="Layer_1" xmlns="http://www.w3.org/2000/svg" xmlns:xlink="http://www.w3.org/1999/xlink" x="0px" y="0px"
	 viewBox="0 0 1800 1800" style="enable-background:new 0 0 1800 1800; color:red" xml:space="preserve">
<g>
	<g>
		<path fill="#858585" d="M1471.11,1067.57c-22.78-31.94-35.74-109.53-8.94-165.5c26.79-56.11,55.09-125.97,41.38-233.66
			c-17.04-133.88-75.43-240.97-146.05-309.12C1202.23,209.45,1047.56,200,899.96,200c-147.55,0-302.25,9.45-457.45,159.3
			c-70.6,68.14-128.99,175.23-146.04,309.12c-13.7,107.69,14.61,177.55,41.38,233.65c26.77,55.99,13.85,133.57-8.96,165.49
			c-24.35,34.09-42.66,59.54-41.92,112.27c0.37,27.75,19.28,92.13,73.77,115.26c43.81,18.58,42.26,5.68,102.78,13.57
			c56,7.28,75.47,60.73,87.63,111.83c12.17,51.1,12.17,94.05,48.69,115.96C636.36,1558.37,786.33,1600,900,1600
			s263.63-41.63,300.14-63.53c36.53-21.92,36.53-64.88,48.71-115.99c12.16-51.1,31.64-104.58,87.63-111.84
			c60.54-7.9,59.01,4.98,102.8-13.56c54.48-23.12,73.4-87.51,73.76-115.26C1513.77,1127.1,1495.48,1101.66,1471.11,1067.57z
			 M574.02,1196.83c-62.53-9.51-102.49-51.87-114.48-73.34c-11.99-21.47-24.99-61.66-15.85-110.54
			c13.11-70.09,46.59-124.69,125.2-127.48c83.26-2.91,244.11,5.09,257.37,113.84c8.01,65.6-28.06,148.38-89.84,174.77
			C689.6,1194.02,636.56,1206.34,574.02,1196.83z M1000.73,1402.67c-13.78,2.51-36.97,13.88-63.92-4.73
			c-13.45-9.3-30.05-19.01-36.29-19.01c-6.23,0-23.92,9.71-37.38,19.01c-26.92,18.63-50.12,7.29-63.9,4.73
			c-21.06-3.88-30.8-39.71-17.98-77.82c10.31-30.63,33.28-65.44,52.45-102.14c10.2-19.5,30.2-67.31,65.52-46.25l1.55-0.02
			c35.33-21.06,55.03,28.92,65.23,48.43c19.16,36.74,42.43,69.35,52.71,99.99C1031.55,1362.95,1021.81,1398.79,1000.73,1402.67z
			 M1340.43,1123.49c-11.96,21.47-51.93,63.83-114.44,73.34c-62.56,9.51-115.59-2.81-162.42-22.77
			c-61.76-26.36-97.85-109.14-89.85-174.75c13.24-108.75,174.11-116.76,257.37-113.84c78.58,2.79,112.09,57.39,125.17,127.48
			C1365.41,1061.83,1352.41,1102.02,1340.43,1123.49z"/>
	</g>
</g>
</svg>
